<?xml version="1.0" encoding="UTF-8" standalone="no"?>
<!-- Created with Inkscape (http://www.inkscape.org/) -->

<svg
   version="1.1"
   id="svg1"
   width="3264"
   height="3264"
   viewBox="0 0 3264 3264"
   xmlns="http://www.w3.org/2000/svg"
   xmlns:svg="http://www.w3.org/2000/svg">
  <defs
     id="defs1" />
  <g
     id="g1">
    <path
       style="fill:#aa3bff;fill-opacity:1;stroke:none"
       d="m 2525.3175,769 c 1.1265,11.6455 13.5203,22.9695 20.3376,32 16.8999,22.3857 33.4449,45.0805 49.6102,68 44.258,62.7505 77.09,133.3418 104.1164,205 21.4629,56.9067 34.1921,116.2002 43.396,176 32.0557,208.2756 1.4036,416.7413 -108.2512,599 -56.2422,93.4807 -140.6214,194.0956 -250.209,223.6853 -15.2063,4.1057 -31.2649,6.011 -47,5.2551 -56.4861,-2.7126 -93.8818,-44.4824 -109.4568,-95.9404 -20.6767,-68.3136 -18.9748,-139.599 -11.3364,-210 2.8738,-26.4854 7.8061,-52.672 11.9407,-79 0.9143,-5.8225 7.5871,-21.1462 3.6755,-26.282 -2.9319,-3.8493 -16.7102,-0.4687 -20.823,0.4264 -21.0369,4.5789 -41.6057,12.04 -62,18.8557 -67.1685,22.4477 -131.6423,53.3147 -194,86.6789 -16.0111,8.5666 -31.2971,18.1436 -46,28.8335 -5.1412,3.7379 -13.5781,7.3913 -16.1658,13.518 -3.6618,8.6702 -4.0776,18.948 -6.6506,27.9695 -8.6034,30.1653 -14.5781,60.158 -20.1122,91 -4.9608,27.647 -8.4339,55.3243 -12.8258,83 -3.3544,21.1378 -4.4858,42.7324 -6.442,64 -11.2623,122.4438 24.2208,297.7437 171.1964,315.6924 89.8726,10.9753 178.5496,-20.0681 256,-63.541 145.7661,-81.8184 254.7961,-207.2168 344.2222,-346.1514 30.9077,-48.0189 58.5395,-98.8943 79.6577,-152 8.7114,-21.9065 20.9353,-47.6593 24.1201,-71 7.0298,4.6431 0.6938,20.9667 -0.8403,28 -6.0225,27.6084 -17.2857,56.3632 -26.836,83 -41.5122,115.7811 -96.4236,224.27 -168.8913,323.9729 -247.9641,341.1553 -668.0453,539.0701 -1087.4324,518.9678 C 1141.004,2703.6895 845.9919,2551.9924 662.1273,2318 554.0475,2180.4541 483.8008,2018.5007 453.2254,1847 c -34.8559,-195.5112 -5.7824,-405.9739 99.8501,-576 31.7425,-51.0928 72.5211,-94.2991 120.242,-130.6655 29.3212,-22.3448 64.5739,-43.4556 101,-51.6521 23.7671,-5.3479 48.6294,-10.4949 73,-8.5711 13.7743,1.0874 29.2789,3.6919 42,9.2158 86.1453,37.4065 92.485,153.4393 84.8044,233.6729 -1.6629,17.371 -4.2563,34.6481 -5.9975,52 -6.6284,66.059 -29.1209,129.7954 -48.0072,193 -41.658,139.4117 -93.4234,276.2284 -118.5437,420 -11.8328,67.7235 -8.2497,159.1138 44.1867,210.5398 21.9801,21.5566 52.3002,33.5012 81.5573,40.9622 55.5722,14.1718 116.9205,-7.6714 165,-34.1861 109.3855,-60.323 190.215,-169.2529 268.9185,-263.3159 94.8463,-113.3562 182.2109,-233.6932 270.764,-352 92.2964,-123.3077 187.2958,-244.5874 280.6519,-367 54.6524,-71.6628 110.5985,-142.5115 168.0391,-212 50.4117,-60.9854 104.1353,-125.1936 170.6265,-169 -4.9797,19.8982 -20.4163,39.4607 -29.3521,58 -23.3242,48.3911 -46.7958,96.6823 -70.2714,145 -52.9185,108.917 -97.0452,223.9973 -137.4906,338 -13.1641,37.1053 -27.8216,73.6798 -40.3698,111 -5.7233,17.0216 -15.4006,36.8875 -15.5161,55 22.8402,-2.3182 46.8151,-15.7334 69,-22.0494 51.616,-14.6951 103.5505,-29.8483 157,-36.778 19.2607,-2.4972 38.6248,-4.7015 58,-6.2048 4.9646,-0.3852 17.679,0.799 20.8503,-3.5705 3.5833,-4.9372 1.8035,-15.5599 2.4549,-21.3973 1.8735,-16.7887 5.4565,-33.353 8.1518,-50 9.0852,-56.1144 21.7962,-112.4163 33.9754,-168 23.2256,-105.9963 50.1887,-212.5481 86.1506,-315 18.6526,-53.1394 46.4194,-103.5237 63.5376,-157 15.5544,-48.5913 -6.6887,-102.1856 -58.1206,-116.8318 -54.3823,-15.4866 -111.0056,-1.4456 -160,23.3467 -62.2329,31.4912 -115.4546,74.6106 -167,121.2888 -22.0764,19.9919 -43.821,40.3811 -64.1147,62.1963 -52.388,56.3154 -104.5184,112.5437 -153.2608,172 -128.5804,156.8428 -243.2242,324.8049 -363.4591,488 -45.9186,62.3253 -90.9934,124.7094 -141.9954,183 -25.0529,28.6333 -52.039,62.3495 -90.17,73.5397 -39.7618,11.6688 -48.8145,-35.4198 -49.9373,-63.5397 -1.2105,-30.318 5.8786,-60.4348 11.4551,-90 8.0944,-42.9138 17.3256,-87.1572 29.9392,-129 10.8079,-35.8524 19.9101,-72.3082 31.2188,-108 8.4996,-26.8258 15.4309,-54.0006 23.1406,-81 8.476,-29.6826 14.785,-60.4409 19.6398,-91 17.2457,-108.5564 32.9599,-242.8089 -68.4562,-317.6907 -15.7343,-11.6174 -37.658,-19.4309 -56,-26.0103 -23.9116,-8.5771 -52.5156,-14.8916 -78,-15.299 -45.7408,-0.7315 -89.0225,2.6135 -134,11.9929 -57.3287,11.9551 -111.5627,30.1929 -163,58.3206 -84.9984,46.4799 -161.6859,104.1152 -230,172.6865 -0.6826,-9.7283 9.1775,-21.7488 13.8656,-30 13.8882,-24.4436 28.2436,-48.2171 44.7019,-71 65.6375,-90.8614 141.7041,-175.4185 229.4325,-245.6001 288.4918,-230.79011 670.5233,-342.44755 1037,-278.90751 89.1969,15.4651 178.6094,37.3438 263,70.27101 27.8967,10.8845 57.1387,21.2063 84,34.4883 14.2451,7.0437 34.0215,21.1662 50,21.7483 -21.0161,-23.9763 -58.7793,-38.8936 -86,-54.7647 -87.7908,-51.18631 -186.6023,-89.54421 -285,-114.14353 -131.2187,-32.8047 -262.52,-49.53468 -398,-43.03248 C 1264.1052,399.69967 981.3347,523.26899 770.3209,712.1867 594.8593,869.2749 461.7326,1076.7598 397.6497,1304 c -79.1835,280.7871 -54.165,595.9579 70.6745,860 78.4302,165.8843 194.1635,306.9189 330.9933,427.8105 71.3021,62.9971 154.1536,113.8433 238,157.9812 198.8884,104.6976 423.9258,152.0101 648,141.2676 67.6251,-3.2419 135.7373,-7.813 202,-22.6328 310.7593,-69.5015 592.1128,-250.2829 777.0737,-511.4265 181.5952,-256.3916 256.4522,-579.7333 212.5938,-890 -17.4654,-123.5536 -55.062,-242.8843 -107.4314,-356 -39.9016,-86.1861 -90.53,-165.6062 -149.5537,-240 -20.573,-25.9302 -42.2664,-50.584 -65.6824,-74 -9.3196,-9.3196 -18.1318,-20.4639 -29,-28 m -208,-170 5,2 -5,-2 m -1034,1555 c 8.5009,0.4675 17.8359,-11.8848 23.5573,-17.3721 18.1014,-17.3613 36.1794,-34.6357 56.4427,-49.4702 83.4648,-61.1036 164.8896,-125.0986 253,-179.9158 215.949,-134.3508 446.2681,-257.3885 692,-326.4282 59.626,-16.7522 120.417,-22.9855 181,-34.8137 -6.1018,-3.8071 -15.9346,-3.4714 -23,-4.5914 -19.5352,-3.0967 -39.3069,-5.1497 -59,-6.5233 -46.1892,-3.2218 -92.6619,-6.0184 -139,-2.7706 -29.2561,2.0506 -58.001,7.5475 -87,10.6889 -74.8167,8.1047 -146.5354,31.9441 -217,57.0817 -196.5605,70.121 -371.0579,192.8718 -514.6553,343.3043 -44.1206,46.2207 -85.3392,96.0475 -122.7771,147.8104 -14.4798,20.0205 -33.3315,40.3926 -43.5676,63 m -2,2 v 2 l 2,-2 z"
       id="path2" />
  </g>
</svg>
